<?xml version="1.0" encoding="utf-8" ?>
<svg xmlns="http://www.w3.org/2000/svg" xmlns:xlink="http://www.w3.org/1999/xlink" width="1024" height="1024">
	<defs>
		<linearGradient id="gradient_0" gradientUnits="userSpaceOnUse" x1="449.64767" y1="291.6774" x2="108.602" y2="307.68622">
			<stop offset="0" stop-color="#CD222E"/>
			<stop offset="1" stop-color="#E88864"/>
		</linearGradient>
	</defs>
	<path fill="url(#gradient_0)" transform="scale(2 2)" d="M319.818 160.05C333.321 165.989 346.989 171.814 360.66 177.368C370.035 181.178 392.489 188.646 399.061 193.819C406.009 199.288 446.93 247.903 447.388 249.079C451.217 258.927 439.133 261.501 432.721 264.271C418.593 270.373 404.146 275.691 389.941 281.601L332.442 305.051C324.934 308.092 316.59 312.385 309.109 314.812C301.07 317.421 294.7 307.621 289.679 302.773C281.441 294.82 273.253 286.535 264.608 279.024L264.605 406.585C264.604 411.827 264.427 417.111 264.608 422.348C294.955 406.354 332.145 394.064 363.95 379.803C369.524 377.304 377.875 373.16 383.779 372.243L383.779 302.5C389.524 300.454 395.004 297.719 400.715 295.61L400.727 367.27C400.726 388.557 395.279 385.478 378.871 392.126C370.533 395.504 362.302 399.182 354.011 402.679L282.408 432.837C256.089 443.932 261.077 446.27 232.591 434.188L203.461 421.952C200.56 420.72 192.193 417.826 190.198 416.384C187.63 415.67 185.053 414.396 182.6 413.347L135.709 393.607C117.35 385.948 111.827 388.919 111.843 367.3L111.854 314.184C111.851 308.251 111.714 302.299 111.854 296.369C117.534 298.153 123.943 300.688 129.23 303.453C129.434 305.462 129.267 307.576 129.252 309.597L129.228 355.001C129.225 360.717 128.94 366.542 129.23 372.243C147.295 380.811 166.494 386.924 184.56 395.594C188.586 396.093 241.907 419.498 247.74 422.348L247.74 278.09C238.101 286.192 215.692 311.904 209.073 314.505C204.513 316.297 197.744 311.925 193.528 310.277L82.0717 264.86C75.5274 262.171 56.9414 257.987 64.5821 246.523C68.2895 240.96 76.5867 233.407 81.3498 228.215L101.021 206.491C103.961 203.291 106.843 199.977 109.957 196.945C115.402 191.107 120.476 189.956 127.717 186.924L172.089 167.924C176.517 166.062 181.102 163.858 185.709 162.513C188.295 167.645 190.869 172.788 193.528 177.883L156.367 193.503C150.99 195.769 144.715 197.564 139.831 200.742C147.263 202.889 154.554 206.358 161.713 209.316L236.506 240.116C242.878 242.74 249.319 245.157 255.619 247.959C258.789 247.107 261.878 245.662 264.911 244.413L352.875 208.225C359.232 205.537 365.184 202.778 371.773 200.742C366.776 197.183 358.37 194.57 352.495 192.149L323.785 180.18C320.039 178.623 316.216 177.231 312.488 175.633C315.042 170.486 317.527 165.321 319.818 160.05ZM86.4853 248.836C90.4215 249.529 93.9549 251.158 97.637 252.642L184.001 287.682C188.933 289.635 194.389 291.398 199.072 293.863C200.959 294.311 202.839 295.468 204.55 296.369C215.912 283.676 228.794 272.76 240.914 260.888C235.304 257.918 229.367 255.591 223.503 253.182L149.097 222.555C145.314 221.027 122.429 210.09 120.008 211.9C118.667 214.22 114.837 217.702 112.871 219.826L96.6305 237.453C93.2007 241.142 89.35 244.683 86.4853 248.836ZM270.729 260.888C277.976 267.212 284.779 274.142 291.583 280.937L306.484 295.61C306.735 295.793 307.337 296.349 307.613 296.369C312.708 295.093 317.637 292.741 322.497 290.745L425.888 248.836C422.936 245.002 392.964 210.879 392.072 210.478C352.61 225.571 309.096 243.557 270.729 260.888Z"/>
	<path fill="#EE875A" transform="scale(2 2)" d="M109.957 196.945C110.144 196.912 124.722 186.858 131.762 185.959C131.438 187.406 131.36 187.738 130.135 188.54C126.394 190.993 127.266 197.396 126.653 201.21C126.503 202.143 125.483 202.172 125.561 203.259C126.103 204.036 127.142 204.93 127.338 205.833C126.173 207.575 127.98 210.033 128.922 212.121C126.904 212.987 119.426 208.733 120.008 211.9C118.667 214.22 114.837 217.702 112.871 219.826L96.6305 237.453C93.2007 241.142 89.35 244.683 86.4853 248.836C90.4215 249.529 93.9549 251.158 97.637 252.642L184.001 287.682C188.933 289.635 194.389 291.398 199.072 293.863C201.17 300.605 199.519 294.95 198.844 300.208C198.388 303.764 200.629 305.402 197.566 308.242L197.523 308.694C201.316 311.506 195.956 309.785 194.3 309.748L193.528 310.277L82.0717 264.86C75.5274 262.171 56.9414 257.987 64.5821 246.523C68.2895 240.96 76.5867 233.407 81.3498 228.215L101.021 206.491C103.961 203.291 106.843 199.977 109.957 196.945Z"/>
	<path fill="#10B594" transform="scale(2 2)" d="M227.269 88.0964C239.693 88.5457 239.249 99.1836 239.25 107.881L239.238 180.145C250.431 180.28 261.649 180.188 272.844 180.169C279.057 180.158 288.256 178.318 293.353 182.882C300.689 189.452 296.771 202.332 285.039 202.483C272.022 202.673 258.979 202.465 245.959 202.476C239.463 202.481 229.817 203.014 223.668 202.294C213.163 201.064 215.902 186.918 215.905 179.704L215.909 115.001C215.905 104.911 212.965 89.3769 227.269 88.0964Z"/>
	<path fill="#ED4D2F" transform="scale(2 2)" d="M303.647 63.5432C314.24 62.2974 329.978 66.4463 339.783 70.8688C362.124 80.9463 378.668 99.6991 387.202 122.395C389.555 117.707 391.264 108.889 395.654 105.935C399.871 103.098 405.432 104.121 408.241 108.399C412.27 114.535 405.795 123.369 403.364 129.198L396.977 144.729C394.419 150.927 392.538 158.949 383.779 156.38C377.743 154.586 350.162 143.982 345.37 141.015C337.611 136.21 341.246 124.1 350.724 125.147C356.22 125.754 365.408 130.69 371.328 132.488L371.773 132.621C365.235 105.759 339.535 83.6963 312.116 81.0646C308.115 80.6806 303.791 80.9452 300.191 78.8654C293.238 74.8483 296.814 65.1571 303.647 63.5432Z"/>
</svg>
